custom-analysis
version=1
nRows=14
nColumns=42
inDegrees=no

This file contains tibia displacement and acting force.

Units are S.I. units (seconds, meters, Newtons, ...)
Angles are in degrees.

endheader
time	APT	SIT	knee_angle	aACL_R_force	pACL_R_force	aPCL_R_force	pPCL_R_force	aMCL_R_force	mMCL_R_force	pMCL_R_force	aLCL_R_force	mLCL_R_force	pLCL_R_force	aACL_R_length	pACL_R_length	aPCL_R_length	pPCL_R_length	aMCL_R_length	mMCL_R_length	pMCL_R_length	aLCL_R_length	mLCL_R_length	pLCL_R_length	aACL_R_strain	pACL_R_strain	aPCL_R_strain	pPCL_R_strain	aMCL_R_strain	mMCL_R_strain	pMCL_R_strain	aLCL_R_strain	mLCL_R_strain	pLCL_R_strain	femur_lat_meniscii_force_r	femur_lat_meniscii_torque_r	femur_med_meniscii_force_r	femur_med_meniscii_torque_r	femur_lat_tibia_force_r	femur_lat_tibia_torque_r	femur_med_tibia_force_r	femur_med_tibia_torque_r
      0.48515926	      0.00230682	     -0.00167606	     60.00037120	     16.56722695	      1.11600552	    793.34323836	    385.07441045	     39.20017797	      5.91198410	      0.00000000	      0.00000000	      0.00000000	      0.00000000	      0.03240797	      0.02544811	      0.03620240	      0.03296293	      0.06247823	      0.06129883	      0.05779207	      0.05389514	      0.04904272	      0.04443613	      0.04523303	      0.00352588	      0.16424038	      0.09555816	      0.07670971	      0.02517546	     -0.04834557	     -0.03719477	     -0.12919148	     -0.15105385	    372.89802162	    149.91129993	    893.31092236	    362.14136584	      0.00000000	      0.00000000	      0.00000000	      0.00000000
      0.48578046	      0.00230892	     -0.00167709	     60.00037120	     16.49221992	      0.97879813	    793.06321685	    384.36885691	     38.77149458	      5.45424178	      0.00000000	      0.00000000	      0.00000000	      0.00000000	      0.03240986	      0.02544958	      0.03620233	      0.03296287	      0.06247970	      0.06130017	      0.05779334	      0.05389552	      0.04904306	      0.04443632	      0.04529383	      0.00358395	      0.16423811	      0.09555600	      0.07673501	      0.02519789	     -0.04832468	     -0.03718803	     -0.12918541	     -0.15105028	    378.31120385	    152.08645094	    905.55344186	    367.07239989	      0.00000000	      0.00000000	      0.00000000	      0.00000000
      0.48640165	      0.00231109	     -0.00167790	     60.00037120	     16.60498563	      1.08132447	    793.25466731	    384.96800817	     39.17341903	      5.86331448	      0.00000000	      0.00000000	      0.00000000	      0.00000000	      0.03241164	      0.02545093	      0.03620201	      0.03296256	      0.06248096	      0.06130129	      0.05779439	      0.05389565	      0.04904315	      0.04443625	      0.04535125	      0.00363719	      0.16422782	      0.09554557	      0.07675670	      0.02521668	     -0.04830744	     -0.03718573	     -0.12918378	     -0.15105153	    373.46282892	    150.13216237	    894.09582881	    362.44610786	      0.00000000	      0.00000000	      0.00000000	      0.00000000
      0.48714972	      0.00231353	     -0.00167917	     60.00037120	     16.45678669	      0.84892929	    792.79590040	    383.77924438	     38.42578705	      5.07292068	      0.00000000	      0.00000000	      0.00000000	      0.00000000	      0.03241386	      0.02545267	      0.03620200	      0.03296255	      0.06248275	      0.06130294	      0.05779595	      0.05389615	      0.04904361	      0.04443654	      0.04542294	      0.00370579	      0.16422747	      0.09554544	      0.07678755	      0.02524417	     -0.04828176	     -0.03717673	     -0.12917558	     -0.15104616	    382.68410291	    153.86746431	    915.16380980	    370.97898917	      0.00000000	      0.00000000	      0.00000000	      0.00000000
      0.48770664	      0.00231546	     -0.00167975	     60.00037120	     16.65030216	      1.06220990	    793.22011833	    385.01324858	     39.22315994	      5.89676532	      0.00000000	      0.00000000	      0.00000000	      0.00000000	      0.03241534	      0.02545377	      0.03620159	      0.03296215	      0.06248374	      0.06130380	      0.05779674	      0.05389612	      0.04904355	      0.04443633	      0.04547074	      0.00374903	      0.16421418	      0.09553194	      0.07680451	      0.02525860	     -0.04826867	     -0.03717728	     -0.12917670	     -0.15105000	    372.79908163	    149.86635837	    892.30827878	    361.72196622	      0.00000000	      0.00000000	      0.00000000	      0.00000000
      0.48826356	      0.00231724	     -0.00168062	     60.00037120	     16.58936818	      0.95234066	    792.98920488	    384.43260083	     38.86396873	      5.51413422	      0.00000000	      0.00000000	      0.00000000	      0.00000000	      0.03241691	      0.02545499	      0.03620153	      0.03296209	      0.06248499	      0.06130495	      0.05779783	      0.05389642	      0.04904382	      0.04443648	      0.04552140	      0.00379697	      0.16421224	      0.09553013	      0.07682611	      0.02527776	     -0.04825080	     -0.03717187	     -0.12917186	     -0.15104730	    377.28660257	    151.68594955	    902.21125111	    365.72051732	      0.00000000	      0.00000000	      0.00000000	      0.00000000
      0.48899735	      0.00231964	     -0.00168152	     60.00037120	     16.74911857	      1.10659610	    793.16260775	    384.99157547	     39.25608889	      5.91105318	      0.00000000	      0.00000000	      0.00000000	      0.00000000	      0.03241889	      0.02545649	      0.03620119	      0.03296176	      0.06248641	      0.06130622	      0.05779901	      0.05389656	      0.04904392	      0.04443640	      0.04558521	      0.00385631	      0.16420133	      0.09551918	      0.07685058	      0.02529904	     -0.04823126	     -0.03716946	     -0.12917019	     -0.15104881	    372.78278851	    149.87319819	    891.72517395	    361.39922141	      0.00000000	      0.00000000	      0.00000000	      0.00000000
      0.48973114	      0.00232191	     -0.00168283	     60.00037120	     16.67978812	      0.94193494	    792.57448988	    383.44307543	     38.37675309	      4.97194793	      0.00000000	      0.00000000	      0.00000000	      0.00000000	      0.03242117	      0.02545834	      0.03620125	      0.03296183	      0.06248820	      0.06130787	      0.05780058	      0.05389710	      0.04904442	      0.04443673	      0.04565868	      0.00392918	      0.16420334	      0.09552155	      0.07688142	      0.02532668	     -0.04820546	     -0.03715969	     -0.12916120	     -0.15104245	    384.78838305	    154.74306510	    918.88003790	    372.40745852	      0.00000000	      0.00000000	      0.00000000	      0.00000000
      0.49026179	      0.00232375	     -0.00168339	     60.00037120	     16.93388195	      1.22127068	    793.05675199	    384.83672265	     39.30294510	      5.92714348	      0.00000000	      0.00000000	      0.00000000	      0.00000000	      0.03242272	      0.02545955	      0.03620081	      0.03296140	      0.06248912	      0.06130868	      0.05780131	      0.05389704	      0.04904432	      0.04443650	      0.04570873	      0.00397679	      0.16418917	      0.09550715	      0.07689737	      0.02534021	     -0.04819337	     -0.03716090	     -0.12916298	     -0.15104693	    373.71036490	    150.26856892	    892.94661663	    361.92387590	      0.00000000	      0.00000000	      0.00000000	      0.00000000
      0.49079245	      0.00232545	     -0.00168425	     60.00037120	     16.90584738	      1.14373428	    792.87208628	    384.38320416	     39.04419525	      5.64673449	      0.00000000	      0.00000000	      0.00000000	      0.00000000	      0.03242440	      0.02546091	      0.03620073	      0.03296132	      0.06249034	      0.06130979	      0.05780236	      0.05389732	      0.04904457	      0.04443662	      0.04576283	      0.00403046	      0.16418650	      0.09550464	      0.07691833	      0.02535880	     -0.04817619	     -0.03715590	     -0.12915856	     -0.15104465	    377.16255340	    151.63923827	    900.71717750	    365.07968954	      0.00000000	      0.00000000	      0.00000000	      0.00000000
      0.49156592	      0.00232801	     -0.00168532	     60.00037120	     17.01173699	      1.22172807	    792.98832139	    384.78999761	     39.33594912	      5.93759985	      0.00000000	      0.00000000	      0.00000000	      0.00000000	      0.03242676	      0.02546279	      0.03620040	      0.03296101	      0.06249194	      0.06131123	      0.05780369	      0.05389752	      0.04904472	      0.04443658	      0.04583901	      0.00410484	      0.16417594	      0.09549409	      0.07694589	      0.02538289	     -0.04815416	     -0.03715233	     -0.12915583	     -0.15104535	    373.19133482	    150.01547535	    892.77865152	    361.88163282	      0.00000000	      0.00000000	      0.00000000	      0.00000000
      0.49222297	      0.00233008	     -0.00168644	     60.00037120	     16.95796324	      1.09281196	    792.61939685	    383.84614067	     38.80103545	      5.36345563	      0.00000000	      0.00000000	      0.00000000	      0.00000000	      0.03242886	      0.02546451	      0.03620035	      0.03296097	      0.06249349	      0.06131265	      0.05780503	      0.05389791	      0.04904508	      0.04443677	      0.04590660	      0.00417237	      0.16417444	      0.09549284	      0.07697256	      0.02540664	     -0.04813215	     -0.03714531	     -0.12914953	     -0.15104160	    380.00377794	    152.72263310	    909.53668306	    368.65284042	      0.00000000	      0.00000000	      0.00000000	      0.00000000
      0.49288003	      0.00233235	     -0.00168721	     60.00037120	     17.18715058	      1.32686280	    793.03362393	    385.07124835	     39.63611566	      6.21971745	      0.00000000	      0.00000000	      0.00000000	      0.00000000	      0.03243085	      0.02546608	      0.03619989	      0.03296051	      0.06249472	      0.06131374	      0.05780603	      0.05389790	      0.04904503	      0.04443656	      0.04597095	      0.00423452	      0.16415941	      0.09547766	      0.07699381	      0.02542487	     -0.04811574	     -0.03714545	     -0.12915039	     -0.15104573	    370.23168208	    148.77984196	    886.51703889	    359.34527084	      0.00000000	      0.00000000	      0.00000000	      0.00000000
      0.49353709	      0.00233443	     -0.00168847	     60.00037120	     17.00535099	      1.03663456	    792.40262974	    383.40318712	     38.63118574	      5.15565945	      0.00000000	      0.00000000	      0.00000000	      0.00000000	      0.03243304	      0.02546789	      0.03619997	      0.03296061	      0.06249641	      0.06131531	      0.05780751	      0.05389843	      0.04904553	      0.04443689	      0.04604150	      0.00430567	      0.16416225	      0.09548090	      0.07702301	      0.02545111	     -0.04809126	     -0.03713593	     -0.12914160	     -0.15103933	    383.11206800	    153.97120895	    916.19550766	    371.35437517	      0.00000000	      0.00000000	      0.00000000	      0.00000000
